<svg width="118" height="26" viewBox="0 0 118 26" fill="none" xmlns="http://www.w3.org/2000/svg">
<path d="M23.5433 10.7899L18.8182 25.3499H15.2279L12.0502 15.4907L8.76946 25.3499H5.1998L0.45401 10.7899H3.9205L7.18065 21.0235L10.5852 10.7899H13.6803L16.9817 21.1067L20.3451 10.7899H23.5433Z" fill="black"/>
<path d="M38.6563 10.7899V25.3499H35.3136V19.3803H28.7521V25.3499H25.4094V10.7899H28.7521V16.5307H35.3136V10.7899H38.6563Z" fill="black"/>
<path d="M52.6631 25.5995C51.5213 25.5995 50.414 25.4469 49.341 25.1419C48.2818 24.8229 47.4289 24.4139 46.7824 23.9147L47.9173 21.3771C48.5363 21.8347 49.2722 22.2021 50.1251 22.4795C50.978 22.7568 51.8308 22.8955 52.6837 22.8955C53.6329 22.8955 54.3344 22.7568 54.7884 22.4795C55.2423 22.1883 55.4693 21.8069 55.4693 21.3355C55.4693 20.9888 55.3317 20.7045 55.0566 20.4827C54.7952 20.2469 54.4513 20.0597 54.0249 19.9211C53.6123 19.7824 53.0482 19.6299 52.333 19.4635C51.2325 19.2 50.3315 18.9365 49.6299 18.6731C48.9284 18.4096 48.3231 17.9867 47.8141 17.4043C47.3189 16.8219 47.0713 16.0453 47.0713 15.0747C47.0713 14.2288 47.2983 13.4661 47.7522 12.7867C48.2062 12.0933 48.887 11.5456 49.7949 11.1435C50.7166 10.7413 51.8377 10.5403 53.1583 10.5403C54.0799 10.5403 54.9809 10.6512 55.8613 10.8731C56.7417 11.0949 57.5121 11.4139 58.1723 11.8299L57.1406 14.3883C55.8063 13.6256 54.472 13.2443 53.1377 13.2443C52.2023 13.2443 51.5076 13.3968 51.0537 13.7019C50.6134 14.0069 50.3934 14.4091 50.3934 14.9083C50.3934 15.4075 50.6478 15.7819 51.1568 16.0315C51.6795 16.2672 52.4705 16.5029 53.5297 16.7387C54.6301 17.0021 55.5312 17.2656 56.2328 17.5291C56.9343 17.7925 57.5327 18.2085 58.0279 18.7771C58.5369 19.3456 58.7914 20.1152 58.7914 21.0859C58.7914 21.9179 58.5575 22.6805 58.0898 23.3739C57.6359 24.0533 56.948 24.5941 56.0264 24.9963C55.1047 25.3984 53.9837 25.5995 52.6631 25.5995Z" fill="black"/>
<path d="M66.2135 25.5163C65.0303 25.5163 63.9641 25.2736 63.015 24.7883C62.0796 24.2891 61.3436 23.6027 60.8072 22.7291C60.2844 21.8555 60.0231 20.864 60.0231 19.7547C60.0231 18.6453 60.2844 17.6539 60.8072 16.7803C61.3436 15.9067 62.0796 15.2272 63.015 14.7419C63.9641 14.2427 65.0303 13.9931 66.2135 13.9931C67.3825 13.9931 68.4007 14.2427 69.2673 14.7419C70.1475 15.2272 70.7871 15.9275 71.1863 16.8427L68.6896 18.1947C68.1118 17.1685 67.2794 16.6555 66.1929 16.6555C65.3533 16.6555 64.6589 16.9328 64.1086 17.4875C63.5584 18.0421 63.2832 18.7979 63.2832 19.7547C63.2832 20.7115 63.5584 21.4672 64.1086 22.0219C64.6589 22.5765 65.3533 22.8539 66.1929 22.8539C67.2929 22.8539 68.1253 22.3408 68.6896 21.3147L71.1863 22.6875C70.7871 23.5749 70.1475 24.2683 69.2673 24.7675C68.4007 25.2667 67.3825 25.5163 66.2135 25.5163Z" fill="black"/>
<path d="M79.7061 13.9931C81.0815 13.9931 82.1893 14.4091 83.0282 15.2411C83.8813 16.0731 84.3075 17.3072 84.3075 18.9435V25.3499H81.0886V19.4427C81.0886 18.5552 80.8958 17.8966 80.5109 17.4667C80.1259 17.023 79.5688 16.8011 78.8395 16.8011C78.0277 16.8011 77.3816 17.0576 76.8999 17.5707C76.4183 18.0699 76.1777 18.8187 76.1777 19.8171V25.3499H72.9589V9.91632H76.1777V15.3243C76.604 14.8944 77.1198 14.5686 77.7253 14.3467C78.3308 14.111 78.991 13.9931 79.7061 13.9931Z" fill="black"/>
<path d="M92.628 25.5163C91.459 25.5163 90.4067 25.2736 89.4711 24.7883C88.5496 24.2891 87.8274 23.6027 87.3045 22.7291C86.7822 21.8555 86.5204 20.864 86.5204 19.7547C86.5204 18.6453 86.7822 17.6539 87.3045 16.7803C87.8274 15.9067 88.5496 15.2272 89.4711 14.7419C90.4067 14.2427 91.459 13.9931 92.628 13.9931C93.7977 13.9931 94.843 14.2427 95.7644 14.7419C96.6865 15.2272 97.4087 15.9067 97.931 16.7803C98.4539 17.6539 98.715 18.6453 98.715 19.7547C98.715 20.864 98.4539 21.8555 97.931 22.7291C97.4087 23.6027 96.6865 24.2891 95.7644 24.7883C94.843 25.2736 93.7977 25.5163 92.628 25.5163ZM92.628 22.8539C93.4534 22.8539 94.1279 22.5765 94.6502 22.0219C95.1866 21.4533 95.4549 20.6976 95.4549 19.7547C95.4549 18.8117 95.1866 18.0629 94.6502 17.5083C94.1279 16.9397 93.4534 16.6555 92.628 16.6555C91.8027 16.6555 91.1218 16.9397 90.5853 17.5083C90.0488 18.0629 89.7806 18.8117 89.7806 19.7547C89.7806 20.6976 90.0488 21.4533 90.5853 22.0219C91.1218 22.5765 91.8027 22.8539 92.628 22.8539Z" fill="black"/>
<path d="M106.149 25.5163C104.98 25.5163 103.928 25.2736 102.992 24.7883C102.071 24.2891 101.348 23.6027 100.826 22.7291C100.303 21.8555 100.041 20.864 100.041 19.7547C100.041 18.6453 100.303 17.6539 100.826 16.7803C101.348 15.9067 102.071 15.2272 102.992 14.7419C103.928 14.2427 104.98 13.9931 106.149 13.9931C107.318 13.9931 108.364 14.2427 109.285 14.7419C110.207 15.2272 110.929 15.9067 111.452 16.7803C111.975 17.6539 112.236 18.6453 112.236 19.7547C112.236 20.864 111.975 21.8555 111.452 22.7291C110.929 23.6027 110.207 24.2891 109.285 24.7883C108.364 25.2736 107.318 25.5163 106.149 25.5163ZM106.149 22.8539C106.974 22.8539 107.648 22.5765 108.171 22.0219C108.708 21.4533 108.976 20.6976 108.976 19.7547C108.976 18.8117 108.708 18.0629 108.171 17.5083C107.648 16.9397 106.974 16.6555 106.149 16.6555C105.324 16.6555 104.643 16.9397 104.106 17.5083C103.57 18.0629 103.302 18.8117 103.302 19.7547C103.302 20.6976 103.57 21.4533 104.106 22.0219C104.643 22.5765 105.324 22.8539 106.149 22.8539Z" fill="black"/>
<path d="M114.388 9.91632H117.607V25.3499H114.388V9.91632Z" fill="black"/>
<path d="M110.244 11.0308L99.3005 1.94995L88.3575 11.0308" stroke="#CB11AB" stroke-width="2.57924"/>
</svg>
